ffmpeg started on 2025-06-07 at 18:27:06
Report written to "D:\Convert\FFMetrics\reports\ssim_report-6.txt"
Log level: 32
Command line:
ffmpeg -hide_banner -nostdin -i "G:\\\xc0\xed\xe8\xec\xe5\\\xce\xed\xe3\xee\xe8\xed\xe3\xe8\\!_36_\xce\xf1\xe5\xed\xfc_2024\\DreamCast\\\xdf \xf1\xf2\xe0\xed\xf3 \xe7\xeb\xee\xe4\xe5\xe9\xea\xee\xe9, \xea\xee\xf2\xee\xf0\xe0\xff \xe2\xee\xe9\xe4\xb8\xf2 \xe2 \xe8\xf1\xf2\xee\xf0\xe8\xfe\\[DC] Rekishi ni Nokoru Akujo ni Naruzo - 10_Telegram_HEVC.mkv" -i "G:\\\xc0\xed\xe8\xec\xe5\\\xce\xed\xe3\xee\xe8\xed\xe3\xe8\\!_36_\xce\xf1\xe5\xed\xfc_2024\\DreamCast\\\xdf \xf1\xf2\xe0\xed\xf3 \xe7\xeb\xee\xe4\xe5\xe9\xea\xee\xe9, \xea\xee\xf2\xee\xf0\xe0\xff \xe2\xee\xe9\xe4\xb8\xf2 \xe2 \xe8\xf1\xf2\xee\xf0\xe8\xfe\\[DC] Rekishi ni Nokoru Akujo ni Naruzo - 10_Telegram.mp4" -lavfi "[0:v]settb=AVTB,setpts=PTS-STARTPTS,format=pix_fmts=yuv420p10,fps=24000/1001,scale=1920:1080:flags=bicubic[main];[1:v]settb=AVTB,setpts=PTS-STARTPTS,format=pix_fmts=yuv420p,fps=24000/1001,scale=1920:1080:flags=bicubic[ref];[main][ref]ssim=eof_action=endall:stats_file='D\\:/Convert/FFMetrics/logs/ssim_logfile-6.txt'" -f null -
Input #0, matroska,webm, from 'G:\Аниме\Онгоинги\!_36_Осень_2024\DreamCast\Я стану злодейкой, которая войдёт в историю\[DC] Rekishi ni Nokoru Akujo ni Naruzo - 10_Telegram_HEVC.mkv':
  Metadata:
    COMPATIBLE_BRANDS: isomiso2avc1mp41
    MAJOR_BRAND     : isom
    MINOR_VERSION   : 512
    ENCODER         : Lavf61.7.100
  Duration: 00:23:46.65, start: -0.021000, bitrate: 781 kb/s
  Stream #0:0: Video: hevc (Main 10), yuv420p10le(tv, bt709, progressive), 1920x1080 [SAR 1:1 DAR 16:9], 23.98 fps, 23.98 tbr, 1k tbn (default)
      Metadata:
        HANDLER_NAME    : VideoHandler
        VENDOR_ID       : [0][0][0][0]
        ENCODER         : Lavc61.19.100 libx265
        BPS             : 583236
        DURATION        : 00:23:46.549708333
        NUMBER_OF_FRAMES: 34203
        NUMBER_OF_BYTES : 104001852
        _STATISTICS_WRITING_APP: mkvpropedit v66.0.0 ('Josie') 64-bit
        _STATISTICS_WRITING_DATE_UTC: 2025-06-06 11:12:49
        _STATISTICS_TAGS: BPS DURATION NUMBER_OF_FRAMES NUMBER_OF_BYTES
  Stream #0:1: Audio: aac (LC), 48000 Hz, stereo, fltp (default)
      Metadata:
        HANDLER_NAME    : SoundHandler
        VENDOR_ID       : [0][0][0][0]
        ENCODER         : Lavc61.19.100 aac
        BPS             : 193870
        DURATION        : 00:23:46.645000000
        NUMBER_OF_FRAMES: 66875
        NUMBER_OF_BYTES : 34573112
        _STATISTICS_WRITING_APP: mkvpropedit v66.0.0 ('Josie') 64-bit
        _STATISTICS_WRITING_DATE_UTC: 2025-06-06 11:12:49
        _STATISTICS_TAGS: BPS DURATION NUMBER_OF_FRAMES NUMBER_OF_BYTES
Input #1, mov,mp4,m4a,3gp,3g2,mj2, from 'G:\Аниме\Онгоинги\!_36_Осень_2024\DreamCast\Я стану злодейкой, которая войдёт в историю\[DC] Rekishi ni Nokoru Akujo ni Naruzo - 10_Telegram.mp4':
  Metadata:
    major_brand     : isom
    minor_version   : 512
    compatible_brands: isomiso2avc1mp41
    encoder         : Lavf61.1.100
  Duration: 00:23:46.62, start: 0.000000, bitrate: 3120 kb/s
  Stream #1:0[0x1](und): Video: h264 (High) (avc1 / 0x31637661), yuv420p(tv, bt709, progressive), 1920x1080 [SAR 1:1 DAR 16:9], 2972 kb/s, 23.98 fps, 23.98 tbr, 24k tbn (default)
      Metadata:
        handler_name    : VideoHandler
        vendor_id       : [0][0][0][0]
        encoder         : Lavc61.3.100 h264_qsv
  Stream #1:1[0x2](und): Audio: aac (HE-AACv2) (mp4a / 0x6134706D), 48000 Hz, stereo, fltp, 144 kb/s (default)
      Metadata:
        handler_name    : SoundHandler
        vendor_id       : [0][0][0][0]
Stream mapping:
  Stream #0:0 (hevc) -> settb:default
  Stream #1:0 (h264) -> settb:default
  ssim:default -> Stream #0:0 (wrapped_avframe)
  Stream #0:1 -> #0:1 (aac (native) -> pcm_s16le (native))
Output #0, null, to 'pipe:':
  Metadata:
    COMPATIBLE_BRANDS: isomiso2avc1mp41
    MAJOR_BRAND     : isom
    MINOR_VERSION   : 512
    encoder         : Lavf61.7.100
  Stream #0:0: Video: wrapped_avframe, yuv420p10le(tv, bt709, progressive), 1920x1080 [SAR 1:1 DAR 16:9], q=2-31, 200 kb/s, 23.98 fps, 23.98 tbn
      Metadata:
        encoder         : Lavc61.19.100 wrapped_avframe
  Stream #0:1: Audio: pcm_s16le, 48000 Hz, stereo, s16, 1536 kb/s (default)
      Metadata:
        HANDLER_NAME    : SoundHandler
        VENDOR_ID       : [0][0][0][0]
        _STATISTICS_TAGS: BPS DURATION NUMBER_OF_FRAMES NUMBER_OF_BYTES
        BPS             : 193870
        DURATION        : 00:23:46.645000000
        NUMBER_OF_FRAMES: 66875
        NUMBER_OF_BYTES : 34573112
        _STATISTICS_WRITING_APP: mkvpropedit v66.0.0 ('Josie') 64-bit
        _STATISTICS_WRITING_DATE_UTC: 2025-06-06 11:12:49
        encoder         : Lavc61.19.100 pcm_s16le
frame=  168 fps=0.0 q=-0.0 size=N/A time=00:00:07.00 bitrate=N/A speed=13.6x    frame=  437 fps=427 q=-0.0 size=N/A time=00:00:18.22 bitrate=N/A speed=17.8x    frame=  685 fps=445 q=-0.0 size=N/A time=00:00:28.57 bitrate=N/A speed=18.6x    frame=  952 fps=462 q=-0.0 size=N/A time=00:00:39.70 bitrate=N/A speed=19.3x    frame= 1179 fps=459 q=-0.0 size=N/A time=00:00:49.17 bitrate=N/A speed=19.1x    frame= 1382 fps=447 q=-0.0 size=N/A time=00:00:57.64 bitrate=N/A speed=18.6x    frame= 1569 fps=436 q=-0.0 size=N/A time=00:01:05.44 bitrate=N/A speed=18.2x    frame= 1790 fps=434 q=-0.0 size=N/A time=00:01:14.65 bitrate=N/A speed=18.1x    frame= 2005 fps=433 q=-0.0 size=N/A time=00:01:23.62 bitrate=N/A speed=  18x    frame= 2196 fps=426 q=-0.0 size=N/A time=00:01:31.59 bitrate=N/A speed=17.8x    frame= 2398 fps=423 q=-0.0 size=N/A time=00:01:40.01 bitrate=N/A speed=17.7x    frame= 2598 fps=420 q=-0.0 size=N/A time=00:01:48.35 bitrate=N/A speed=17.5x    frame= 2806 fps=419 q=-0.0 size=N/A time=00:01:57.03 bitrate=N/A speed=17.5x    frame= 2966 fps=411 q=-0.0 size=N/A time=00:02:03.70 bitrate=N/A speed=17.1x    frame= 3212 fps=416 q=-0.0 size=N/A time=00:02:13.96 bitrate=N/A speed=17.3x    frame= 3471 fps=421 q=-0.0 size=N/A time=00:02:24.76 bitrate=N/A speed=17.5x    frame= 3739 fps=427 q=-0.0 size=N/A time=00:02:35.94 bitrate=N/A speed=17.8x    frame= 3985 fps=430 q=-0.0 size=N/A time=00:02:46.20 bitrate=N/A speed=17.9x    frame= 4271 fps=436 q=-0.0 size=N/A time=00:02:58.13 bitrate=N/A speed=18.2x    frame= 4523 fps=439 q=-0.0 size=N/A time=00:03:08.64 bitrate=N/A speed=18.3x    frame= 4729 fps=437 q=-0.0 size=N/A time=00:03:17.23 bitrate=N/A speed=18.2x    frame= 4964 fps=438 q=-0.0 size=N/A time=00:03:27.04 bitrate=N/A speed=18.3x    frame= 5149 fps=434 q=-0.0 size=N/A time=00:03:34.75 bitrate=N/A speed=18.1x    frame= 5375 fps=435 q=-0.0 size=N/A time=00:03:44.18 bitrate=N/A speed=18.1x    frame= 5637 fps=437 q=-0.0 size=N/A time=00:03:55.10 bitrate=N/A speed=18.2x    frame= 5875 fps=438 q=-0.0 size=N/A time=00:04:05.03 bitrate=N/A speed=18.3x    frame= 6093 fps=438 q=-0.0 size=N/A time=00:04:14.12 bitrate=N/A speed=18.3x    frame= 6324 fps=438 q=-0.0 size=N/A time=00:04:23.76 bitrate=N/A speed=18.3x    frame= 6581 fps=440 q=-0.0 size=N/A time=00:04:34.48 bitrate=N/A speed=18.4x    frame= 6862 fps=444 q=-0.0 size=N/A time=00:04:46.20 bitrate=N/A speed=18.5x    frame= 7135 fps=446 q=-0.0 size=N/A time=00:04:57.58 bitrate=N/A speed=18.6x    frame= 7376 fps=447 q=-0.0 size=N/A time=00:05:07.64 bitrate=N/A speed=18.7x    frame= 7657 fps=450 q=-0.0 size=N/A time=00:05:19.36 bitrate=N/A speed=18.8x    frame= 7936 fps=453 q=-0.0 size=N/A time=00:05:30.99 bitrate=N/A speed=18.9x    frame= 8209 fps=455 q=-0.0 size=N/A time=00:05:42.38 bitrate=N/A speed=  19x    frame= 8487 fps=457 q=-0.0 size=N/A time=00:05:53.97 bitrate=N/A speed=19.1x    frame= 8738 fps=458 q=-0.0 size=N/A time=00:06:04.44 bitrate=N/A speed=19.1x    frame= 8938 fps=456 q=-0.0 size=N/A time=00:06:12.78 bitrate=N/A speed=  19x    frame= 9155 fps=455 q=-0.0 size=N/A time=00:06:21.83 bitrate=N/A speed=  19x    frame= 9390 fps=455 q=-0.0 size=N/A time=00:06:31.64 bitrate=N/A speed=  19x    frame= 9629 fps=455 q=-0.0 size=N/A time=00:06:41.60 bitrate=N/A speed=  19x    frame= 9897 fps=457 q=-0.0 size=N/A time=00:06:52.78 bitrate=N/A speed=19.1x    frame=10143 fps=457 q=-0.0 size=N/A time=00:07:03.04 bitrate=N/A speed=19.1x    frame=10404 fps=459 q=-0.0 size=N/A time=00:07:13.93 bitrate=N/A speed=19.1x    frame=10680 fps=460 q=-0.0 size=N/A time=00:07:25.44 bitrate=N/A speed=19.2x    frame=10954 fps=462 q=-0.0 size=N/A time=00:07:36.87 bitrate=N/A speed=19.3x    frame=11228 fps=463 q=-0.0 size=N/A time=00:07:48.30 bitrate=N/A speed=19.3x    frame=11489 fps=464 q=-0.0 size=N/A time=00:07:59.18 bitrate=N/A speed=19.4x    frame=11751 fps=465 q=-0.0 size=N/A time=00:08:10.15 bitrate=N/A speed=19.4x    frame=12000 fps=466 q=-0.0 size=N/A time=00:08:20.50 bitrate=N/A speed=19.4x    frame=12279 fps=467 q=-0.0 size=N/A time=00:08:32.13 bitrate=N/A speed=19.5x    frame=12539 fps=468 q=-0.0 size=N/A time=00:08:42.98 bitrate=N/A speed=19.5x    frame=12790 fps=468 q=-0.0 size=N/A time=00:08:53.44 bitrate=N/A speed=19.5x    frame=13060 fps=469 q=-0.0 size=N/A time=00:09:04.71 bitrate=N/A speed=19.6x    frame=13306 fps=469 q=-0.0 size=N/A time=00:09:14.97 bitrate=N/A speed=19.6x    frame=13581 fps=470 q=-0.0 size=N/A time=00:09:26.44 bitrate=N/A speed=19.6x    frame=13849 fps=471 q=-0.0 size=N/A time=00:09:37.61 bitrate=N/A speed=19.7x    frame=14125 fps=472 q=-0.0 size=N/A time=00:09:49.13 bitrate=N/A speed=19.7x    frame=14346 fps=472 q=-0.0 size=N/A time=00:09:58.34 bitrate=N/A speed=19.7x    frame=14538 fps=470 q=-0.0 size=N/A time=00:10:06.35 bitrate=N/A speed=19.6x    frame=14759 fps=469 q=-0.0 size=N/A time=00:10:15.57 bitrate=N/A speed=19.6x    frame=14987 fps=469 q=-0.0 size=N/A time=00:10:25.08 bitrate=N/A speed=19.6x    frame=15227 fps=469 q=-0.0 size=N/A time=00:10:35.09 bitrate=N/A speed=19.6x    frame=15478 fps=469 q=-0.0 size=N/A time=00:10:45.56 bitrate=N/A speed=19.6x    frame=15714 fps=469 q=-0.0 size=N/A time=00:10:55.40 bitrate=N/A speed=19.6x    frame=15988 fps=470 q=-0.0 size=N/A time=00:11:06.83 bitrate=N/A speed=19.6x    frame=16240 fps=470 q=-0.0 size=N/A time=00:11:17.34 bitrate=N/A speed=19.6x    frame=16506 fps=471 q=-0.0 size=N/A time=00:11:28.43 bitrate=N/A speed=19.6x    frame=16774 fps=472 q=-0.0 size=N/A time=00:11:39.61 bitrate=N/A speed=19.7x    frame=17040 fps=472 q=-0.0 size=N/A time=00:11:50.71 bitrate=N/A speed=19.7x    frame=17299 fps=473 q=-0.0 size=N/A time=00:12:01.51 bitrate=N/A speed=19.7x    frame=17543 fps=473 q=-0.0 size=N/A time=00:12:11.68 bitrate=N/A speed=19.7x    frame=17810 fps=473 q=-0.0 size=N/A time=00:12:22.82 bitrate=N/A speed=19.7x    frame=18069 fps=474 q=-0.0 size=N/A time=00:12:33.62 bitrate=N/A speed=19.8x    frame=18330 fps=474 q=-0.0 size=N/A time=00:12:44.51 bitrate=N/A speed=19.8x    frame=18586 fps=474 q=-0.0 size=N/A time=00:12:55.19 bitrate=N/A speed=19.8x    frame=18837 fps=474 q=-0.0 size=N/A time=00:13:05.65 bitrate=N/A speed=19.8x    frame=19076 fps=474 q=-0.0 size=N/A time=00:13:15.62 bitrate=N/A speed=19.8x    frame=19312 fps=474 q=-0.0 size=N/A time=00:13:25.47 bitrate=N/A speed=19.8x    frame=19535 fps=474 q=-0.0 size=N/A time=00:13:34.77 bitrate=N/A speed=19.8x    frame=19776 fps=474 q=-0.0 size=N/A time=00:13:44.82 bitrate=N/A speed=19.8x    frame=20039 fps=474 q=-0.0 size=N/A time=00:13:55.79 bitrate=N/A speed=19.8x    frame=20287 fps=474 q=-0.0 size=N/A time=00:14:06.13 bitrate=N/A speed=19.8x    frame=20552 fps=474 q=-0.0 size=N/A time=00:14:17.18 bitrate=N/A speed=19.8x    frame=20800 fps=474 q=-0.0 size=N/A time=00:14:27.53 bitrate=N/A speed=19.8x    frame=21059 fps=475 q=-0.0 size=N/A time=00:14:38.33 bitrate=N/A speed=19.8x    frame=21304 fps=475 q=-0.0 size=N/A time=00:14:48.55 bitrate=N/A speed=19.8x    frame=21575 fps=475 q=-0.0 size=N/A time=00:14:59.85 bitrate=N/A speed=19.8x    frame=21841 fps=476 q=-0.0 size=N/A time=00:15:10.95 bitrate=N/A speed=19.8x    frame=22122 fps=476 q=-0.0 size=N/A time=00:15:22.67 bitrate=N/A speed=19.9x    frame=22377 fps=477 q=-0.0 size=N/A time=00:15:33.30 bitrate=N/A speed=19.9x    frame=22652 fps=477 q=-0.0 size=N/A time=00:15:44.77 bitrate=N/A speed=19.9x    frame=22910 fps=478 q=-0.0 size=N/A time=00:15:55.53 bitrate=N/A speed=19.9x    frame=23182 fps=478 q=-0.0 size=N/A time=00:16:06.88 bitrate=N/A speed=19.9x    frame=23428 fps=478 q=-0.0 size=N/A time=00:16:17.14 bitrate=N/A speed=19.9x    frame=23701 fps=478 q=-0.0 size=N/A time=00:16:28.52 bitrate=N/A speed=  20x    frame=23967 fps=479 q=-0.0 size=N/A time=00:16:39.62 bitrate=N/A speed=  20x    frame=24230 fps=479 q=-0.0 size=N/A time=00:16:50.59 bitrate=N/A speed=  20x    frame=24492 fps=479 q=-0.0 size=N/A time=00:17:01.52 bitrate=N/A speed=  20x    frame=24755 fps=480 q=-0.0 size=N/A time=00:17:12.48 bitrate=N/A speed=  20x    frame=25021 fps=480 q=-0.0 size=N/A time=00:17:23.58 bitrate=N/A speed=  20x    frame=25269 fps=480 q=-0.0 size=N/A time=00:17:33.92 bitrate=N/A speed=  20x    frame=25526 fps=480 q=-0.0 size=N/A time=00:17:44.64 bitrate=N/A speed=  20x    frame=25778 fps=480 q=-0.0 size=N/A time=00:17:55.15 bitrate=N/A speed=  20x    frame=26017 fps=480 q=-0.0 size=N/A time=00:18:05.12 bitrate=N/A speed=  20x    frame=26286 fps=481 q=-0.0 size=N/A time=00:18:16.34 bitrate=N/A speed=  20x    frame=26529 fps=481 q=-0.0 size=N/A time=00:18:26.48 bitrate=N/A speed=  20x    frame=26764 fps=480 q=-0.0 size=N/A time=00:18:36.28 bitrate=N/A speed=  20x    frame=27025 fps=480 q=-0.0 size=N/A time=00:18:47.16 bitrate=N/A speed=  20x    frame=27303 fps=481 q=-0.0 size=N/A time=00:18:58.76 bitrate=N/A speed=20.1x    frame=27563 fps=481 q=-0.0 size=N/A time=00:19:09.60 bitrate=N/A speed=20.1x    frame=27845 fps=482 q=-0.0 size=N/A time=00:19:21.36 bitrate=N/A speed=20.1x    frame=28123 fps=482 q=-0.0 size=N/A time=00:19:32.96 bitrate=N/A speed=20.1x    frame=28385 fps=482 q=-0.0 size=N/A time=00:19:43.89 bitrate=N/A speed=20.1x    frame=28666 fps=483 q=-0.0 size=N/A time=00:19:55.61 bitrate=N/A speed=20.1x    frame=28945 fps=483 q=-0.0 size=N/A time=00:20:07.24 bitrate=N/A speed=20.2x    frame=29189 fps=483 q=-0.0 size=N/A time=00:20:17.42 bitrate=N/A speed=20.2x    frame=29450 fps=484 q=-0.0 size=N/A time=00:20:28.31 bitrate=N/A speed=20.2x    frame=29699 fps=484 q=-0.0 size=N/A time=00:20:38.69 bitrate=N/A speed=20.2x    frame=29959 fps=484 q=-0.0 size=N/A time=00:20:49.53 bitrate=N/A speed=20.2x    frame=30209 fps=484 q=-0.0 size=N/A time=00:20:59.96 bitrate=N/A speed=20.2x    frame=30490 fps=484 q=-0.0 size=N/A time=00:21:11.68 bitrate=N/A speed=20.2x    frame=30756 fps=484 q=-0.0 size=N/A time=00:21:22.78 bitrate=N/A speed=20.2x    frame=31011 fps=485 q=-0.0 size=N/A time=00:21:33.41 bitrate=N/A speed=20.2x    frame=31268 fps=485 q=-0.0 size=N/A time=00:21:44.13 bitrate=N/A speed=20.2x    frame=31526 fps=485 q=-0.0 size=N/A time=00:21:54.89 bitrate=N/A speed=20.2x    frame=31792 fps=485 q=-0.0 size=N/A time=00:22:05.99 bitrate=N/A speed=20.2x    frame=32061 fps=485 q=-0.0 size=N/A time=00:22:17.21 bitrate=N/A speed=20.2x    frame=32303 fps=485 q=-0.0 size=N/A time=00:22:27.30 bitrate=N/A speed=20.2x    frame=32554 fps=485 q=-0.0 size=N/A time=00:22:37.77 bitrate=N/A speed=20.2x    frame=32776 fps=485 q=-0.0 size=N/A time=00:22:47.03 bitrate=N/A speed=20.2x    frame=33052 fps=485 q=-0.0 size=N/A time=00:22:58.54 bitrate=N/A speed=20.2x    frame=33302 fps=485 q=-0.0 size=N/A time=00:23:08.97 bitrate=N/A speed=20.2x    frame=33536 fps=485 q=-0.0 size=N/A time=00:23:18.73 bitrate=N/A speed=20.2x    frame=33790 fps=485 q=-0.0 size=N/A time=00:23:29.32 bitrate=N/A speed=20.2x    frame=34070 fps=485 q=-0.0 size=N/A time=00:23:41.00 bitrate=N/A speed=20.2x    [Parsed_ssim_10 @ 00000253e885e640] SSIM Y:0.995453 (23.422994) U:0.994628 (22.698627) V:0.994692 (22.750932) All:0.995189 (23.177541)
[out#0/null @ 00000253db686540] video:14697KiB audio:267500KiB subtitle:0KiB other streams:0KiB global headers:0KiB muxing overhead: unknown
frame=34203 fps=485 q=-0.0 Lsize=N/A time=00:23:46.55 bitrate=N/A speed=20.2x    
